<?xml version="1.0" encoding="UTF-8" standalone="no"?> <svg id="Layer_2" data-name="Layer 2" xmlns="http://www.w3.org/2000/svg" viewBox="0 0 64 64"><path d="M53.17477,49.219a2.66931,2.66931,0,0,1-1.9.65h-.18c-8.05-.32-36.92-22.56-38.7-24.58-.66-.74-2.41-2.72,7.39-14.72,1.6-2.12,4.09-.59,5.29.15l.5.33c1.86,1.59,1.17,3.49.61,5.02-.76,2.09-1.37,3.74005,2.35,5.9a33.5732,33.5732,0,0,0,5.1,2.57c0-.31-.02-.67-.04-1.01-.09-2.1-.21-4.7,1.23-5.87a2.82769,2.82769,0,0,1,2.63-.41l-.02.07c.7.14,2.11.58,5.3,1.59l.11.04c1.72.79,3.21,4.15,2.85,6.43a1.84463,1.84463,0,0,1-.1.42l-2.64.13995c.39-.06994.66-.27.76-.87994a5.55124,5.55124,0,0,0-1.66-4.27c-.63-.2-5.05-1.59-5.15-1.62a.95327.95327,0,0,0-.82.04c-.66.54-.55,2.84-.49,4.22a14.35078,14.35078,0,0,1,.00995,2.07,1.15566,1.15566,0,0,1-.46.92c-.66.51-1.73.68-7.61-2.72-5.17-3.01-4-6.2-3.23-8.32.56-1.53.71-2.15.03-2.77l-.31-.18a4.81085,4.81085,0,0,0-2.08-.93.70428.70428,0,0,0-.59.31c-6.18,7.56-7.85,11.47-7.46,12.16,1.88,2.13,30.49,23.63,37.28,23.9a1.18209,1.18209,0,0,0,.61-.09c1.73-1.67,1.17-2.65-.9-4.99a9.40294,9.40294,0,0,1-2.45-3.91,1.48408,1.48408,0,0,0-1.36-.825,21.44335,21.44335,0,0,0,3.105-.34875c.05.11.145.54376.185.67371a8.187,8.187,0,0,0,2.02,3.09C54.09481,43.409,56.43478,46.069,53.17477,49.219Z"/><path d="M45.85478,32.429c-.02,0-.04.01-.06.01l-.79.04a1.269,1.269,0,0,0,.71-.45,1.00759,1.00759,0,0,0,.12-.23l.34-.02a3.04159,3.04159,0,0,0,.95-.26,2.94039,2.94039,0,0,0,.73-.47,2.67954,2.67954,0,0,1-.08,1.23Z"/><path d="M48.23178,54.51035a4.97948,4.97948,0,0,1-2.49512-.6748l-24.10059-13.915c-8.31933-4.311-12.51953-8.36719-12.44433-12.03467.06543-3.14941,3.1748-4.6372,3.30761-4.69922l.84571,1.8125c-.0166.0083-2.12305,1.03711-2.15332,2.94092-.02637,1.59815,1.42187,5.05225,11.40429,10.22656L46.73666,52.10313a2.999,2.999,0,0,0,4.16016-1.20166l1.64746-3.687,1.90566.30439-1.75527,4.25664a5.01681,5.01681,0,0,1-4.46289,2.73486Z"/><path d="M47.37478,26.199a2.99345,2.99345,0,0,0-1.78-.4l-4.57.26h-.06a3.0185,3.0185,0,0,0-2.52,1.97c0,.01-.01.02-.02.04a2.93409,2.93409,0,0,0,1.79555,3.71447,7.32428,7.32428,0,0,0,2.75193.1873l2.37211-.13954a5.579,5.579,0,0,0,1.70847-.28073A3.0261,3.0261,0,0,0,47.37478,26.199ZM46.371,29.62167a2.37571,2.37571,0,0,1-.957.20667q-1.344.05054-2.6849.15988a4.2125,4.2125,0,0,1-1.87916-.03108.99544.99544,0,0,1,.27485-1.89814c1.16257-.06074,3.45806-.19782,4.64-.26a1.01936,1.01936,0,0,1,1.11.88A.87424.87424,0,0,1,46.371,29.62167Z"/><path d="M50.2649,32.42614a2.99348,2.99348,0,0,0-1.78-.4l-4.57.26h-.06a3.01851,3.01851,0,0,0-2.52,1.97c0,.01-.01.02-.02.04a2.93409,2.93409,0,0,0,1.79555,3.71446,7.32407,7.32407,0,0,0,2.75193.1873l2.37211-.13954a5.57856,5.57856,0,0,0,1.70848-.28073A3.02609,3.02609,0,0,0,50.2649,32.42614Zm-1.0038,3.42272a2.3755,2.3755,0,0,1-.957.20666q-1.344.05053-2.6849.15988A4.21221,4.21221,0,0,1,43.74,36.18432a.99544.99544,0,0,1,.27486-1.89814c1.16256-.06073,3.45805-.19781,4.64-.26a1.01937,1.01937,0,0,1,1.11.88A.87427.87427,0,0,1,49.2611,35.84886Z"/><path d="M50.2649,32.63168a2.99347,2.99347,0,0,0-1.78-.4l-4.57.26h-.06a3.01851,3.01851,0,0,0-2.52,1.97c0,.01-.01.02-.02.04a2.9341,2.9341,0,0,0,1.79555,3.71447,7.32428,7.32428,0,0,0,2.75193.1873l2.37211-.13954a5.57887,5.57887,0,0,0,1.70848-.28073A3.0261,3.0261,0,0,0,50.2649,32.63168Zm-1.0038,3.42273a2.37566,2.37566,0,0,1-.957.20666q-1.344.05054-2.6849.15988A4.2125,4.2125,0,0,1,43.74,36.38987a.99544.99544,0,0,1,.27486-1.89814c1.16256-.06074,3.45805-.19781,4.64-.26a1.01937,1.01937,0,0,1,1.11.88A.87427.87427,0,0,1,49.2611,36.05441Z"/><path d="M33.06185,39.80283l-1.416-1.4121a4.0698,4.0698,0,0,0,.97461-3.03711c-.17285-1.91114-1.70313-3.95557-4.42578-5.9126-7.36035-5.29151-11.09082-1.417-11.126-1.377l-1.4668-1.35938c.2002-.21533,4.98243-5.19873,13.76075,1.1123,3.27636,2.35547,5.04394,4.84766,5.2539,7.40723A6.10446,6.10446,0,0,1,33.06185,39.80283Z"/></svg>